<svg xmlns="http://www.w3.org/2000/svg" width="137.309" height="80.228" viewBox="0 0 137.309 80.228"><defs><style>.a{fill:#65599a;}.b{fill:#fff;}.c{fill:#f5b818;}</style></defs><g transform="translate(-103.798 -140.54)"><path class="a" d="M185.365,177.245l-9.93,30.208a9.906,9.906,0,0,1-7.385,6.6l-31.123,6.5a9.907,9.907,0,0,1-9.411-3.093l-21.194-23.706a9.889,9.889,0,0,1-2.026-9.7l9.93-30.208a9.906,9.906,0,0,1,7.384-6.6l31.123-6.5a9.907,9.907,0,0,1,9.411,3.093l21.194,23.706A9.887,9.887,0,0,1,185.365,177.245Z"/><g transform="translate(114.029 160.151)"><path class="b" d="M129.725,188.127l6.439-1.345,1.433,6.859-6.439,1.345,4.639,22.2-8.718,1.821-6.534-31.275q-1.017-4.872,1.356-8.041a11.618,11.618,0,0,1,7.253-4.189,15.168,15.168,0,0,1,4.61-.3l.185,6.7a6.264,6.264,0,0,0-1.669.163q-3.66.764-2.956,4.134Z" transform="translate(-120.239 -173.223)"/><rect class="b" width="8.906" height="29.689" transform="translate(17.517 13.226) rotate(-11.801)"/><path class="b" d="M153.732,178.962a4.182,4.182,0,0,1-2.787,1.959,4.432,4.432,0,0,1-3.413-.664,4.334,4.334,0,0,1-1.315-6.169,4.5,4.5,0,0,1,2.9-1.93,4.267,4.267,0,0,1,3.328.63,4.326,4.326,0,0,1,1.92,2.847A4.373,4.373,0,0,1,153.732,178.962Z" transform="translate(-129.76 -172.056)"/><path class="b" d="M199.046,205.044l3.048,3.465-9.551,2-7.076-7.439-.523.109-3.734,9.7-9.94,2.077,5.714-16.27L165.907,186.1l-.266-.3,9.845-2.057,6.726,6.665.523-.109,3.441-8.79L196,179.453l0,.007a.91.91,0,0,1,.133-.035l.329-.068L195.4,182.4l-.012.01a1.716,1.716,0,0,0-.3.867v.007l-4.337,12.343,8.276,9.393Z" transform="translate(-137.389 -174.814)"/></g><path class="c" d="M280.238,198.729V180.106h-7.28L259.581,199a7.4,7.4,0,0,0-4.571-4.107v-.335q4.165-2.06,4.162-6.274a7.443,7.443,0,0,0-3.271-6.371,13.039,13.039,0,0,0-7.774-2.337,13.277,13.277,0,0,0-8.263,2.587,8.328,8.328,0,0,0-3.271,4.778,7.806,7.806,0,0,0-2.7-4.955,11.493,11.493,0,0,0-7.646-2.41,14.23,14.23,0,0,0-5.291.933,10.093,10.093,0,0,0-3.772,2.441A11.155,11.155,0,0,0,215,186.232a9.629,9.629,0,0,0-.818,3.533h7.561a4.392,4.392,0,0,1,1.153-2.9,3.689,3.689,0,0,1,2.923-1.257,3.3,3.3,0,0,1,2.411.921,3.037,3.037,0,0,1,.933,2.295,3.375,3.375,0,0,1-.6,1.867,6.4,6.4,0,0,1-1.2,1.391c-.4.306-.964.714-1.7,1.184l-5.132,3.3a13.238,13.238,0,0,0-6.4,11.881v2.295h22.493V204.7H222.8a6.979,6.979,0,0,1,3.3-3.918l5.363-3.551q5.154-3.268,5.261-8.415h6.755a3.955,3.955,0,0,1,1.488-2.587,4.578,4.578,0,0,1,2.826-.91,4.344,4.344,0,0,1,2.923.983,3.22,3.22,0,0,1,1.135,2.557,3.088,3.088,0,0,1-1.208,2.63,5.35,5.35,0,0,1-3.289.9h-2.63v5.321h2.819a5.922,5.922,0,0,1,3.594.983,3.464,3.464,0,0,1,.1,5.394,5.172,5.172,0,0,1-3.405,1.05c-2.557,0-4.095-1.391-4.638-4.168h-7.231a10.424,10.424,0,0,0,3.271,7.469c2.032,1.843,4.912,2.777,8.641,2.777a13.908,13.908,0,0,0,8.812-2.66,8.424,8.424,0,0,0,3.069-4.339H273.25v6.518h6.987v-6.518h2.551v-5.492Zm-6.987,0h-6.5l6.078-9.092h.427Z" transform="translate(-41.681 -14.747)"/></g></svg>