<svg width="253" height="140" viewBox="0 0 253 140" fill="none" xmlns="http://www.w3.org/2000/svg">
<path d="M126.92 0H82V27.85L101.7 35.48V62L126.92 77.76L152.14 62V35.48L171.85 27.85V0H126.92Z" fill="#0069FF"/>
<path d="M27.585 102.368V108.191H17.4448V139.071H10.1064V108.191H0V102.368H27.585Z" fill="#002F71"/>
<path d="M44.6817 111.672C46.9042 112.829 48.7419 114.609 49.9707 116.792C51.2348 119.22 51.8949 121.916 51.8949 124.653C51.8949 127.39 51.2348 130.086 49.9707 132.514C48.7355 134.689 46.9043 136.465 44.6929 137.634C42.3462 138.813 39.7563 139.428 37.1299 139.428C34.5036 139.428 31.9137 138.813 29.5669 137.634C27.3567 136.464 25.5259 134.687 24.2891 132.514C23.025 130.086 22.365 127.39 22.365 124.653C22.365 121.916 23.025 119.22 24.2891 116.792C25.515 114.61 27.3486 112.831 29.5669 111.672C31.9184 110.509 34.5065 109.904 37.1299 109.904C39.7534 109.904 42.3414 110.509 44.6929 111.672H44.6817ZM31.9195 118.409C30.4971 119.847 29.7878 121.935 29.7915 124.675C29.7953 127.415 30.5046 129.504 31.9195 130.941C32.6021 131.625 33.4126 132.167 34.3047 132.536C35.1968 132.906 36.153 133.096 37.1187 133.096C38.0844 133.096 39.0406 132.906 39.9327 132.536C40.8248 132.167 41.6353 131.625 42.3179 130.941C43.7365 129.504 44.4477 127.415 44.4515 124.675C44.4552 121.935 43.744 119.847 42.3179 118.409C41.6353 117.726 40.8248 117.184 39.9327 116.815C39.0406 116.445 38.0844 116.255 37.1187 116.255C36.153 116.255 35.1968 116.445 34.3047 116.815C33.4126 117.184 32.6021 117.726 31.9195 118.409V118.409Z" fill="#002F71"/>
<path d="M70.032 139.071L60.4871 126.489V139.071H53.1824V100.6H60.5152V122.227L69.9759 110.268H78.6618L66.5453 124.619L78.9706 139.071H70.032Z" fill="#002F71"/>
<path d="M105.433 126.073H84.3269C84.428 128.641 85.1205 130.53 86.4044 131.739C87.0431 132.341 87.7943 132.812 88.6151 133.124C89.436 133.437 90.3103 133.584 91.1881 133.558C92.6991 133.614 94.1873 133.177 95.4272 132.311C96.5422 131.498 97.3115 130.296 97.5832 128.943H105.331C104.967 130.916 104.129 132.772 102.889 134.35C101.611 135.968 99.9599 137.253 98.0773 138.095C95.8537 139.057 93.445 139.516 91.0234 139.439C88.6017 139.363 86.2269 138.752 84.0687 137.651C81.9062 136.478 80.1341 134.698 78.9705 132.53C77.7745 130.083 77.1528 127.394 77.1528 124.67C77.1528 121.945 77.7745 119.257 78.9705 116.809C80.1246 114.635 81.8991 112.852 84.0687 111.689C86.3752 110.48 88.9493 109.871 91.553 109.92C94.1508 109.86 96.7203 110.469 99.0149 111.689C101.087 112.81 102.798 114.496 103.95 116.551C105.137 118.707 105.739 121.136 105.696 123.597C105.683 124.429 105.595 125.258 105.433 126.073V126.073ZM96.4491 117.494C95.1067 116.278 93.347 115.626 91.5362 115.675C89.7014 115.623 87.916 116.274 86.5448 117.494C85.1935 118.707 84.4449 120.492 84.2989 122.851H98.3131C98.4142 120.492 97.7984 118.707 96.4659 117.494H96.4491Z" fill="#002F71"/>
<path d="M132.102 113.126C134.079 115.312 135.067 118.379 135.067 122.328V139.071H127.768V123.159C127.768 120.872 127.178 119.096 125.999 117.831C125.375 117.189 124.621 116.688 123.787 116.36C122.953 116.033 122.059 115.887 121.165 115.933C120.236 115.893 119.309 116.053 118.447 116.404C117.586 116.755 116.81 117.288 116.174 117.966C114.927 119.313 114.304 121.254 114.304 123.788V139.071H106.994V110.268H114.326V116.04C115.043 114.148 116.368 112.548 118.094 111.492C119.915 110.378 122.017 109.809 124.152 109.853C127.476 109.853 130.126 110.944 132.102 113.126Z" fill="#002F71"/>
<path d="M146.628 125.45V139.071H139.328V102.368H152.686C157.02 102.368 160.288 103.407 162.489 105.484C164.69 107.562 165.791 110.388 165.791 113.963C165.791 117.462 164.654 120.251 162.382 122.328C160.11 124.406 156.878 125.446 152.686 125.45H146.628ZM158.334 113.985C158.334 112.143 157.831 110.74 156.824 109.774C155.817 108.808 154.172 108.322 151.889 108.314H146.633V119.6H151.889C156.186 119.6 158.334 117.728 158.334 113.985Z" fill="#002F71"/>
<path d="M167.059 99.1173C167.998 98.3929 169.15 98 170.336 98C171.521 98 172.673 98.3929 173.612 99.1173C174.019 99.4773 174.341 99.9225 174.557 100.421C174.772 100.92 174.875 101.46 174.858 102.003C174.871 102.538 174.767 103.07 174.551 103.56C174.336 104.05 174.015 104.487 173.612 104.839C172.673 105.563 171.521 105.956 170.336 105.956C169.15 105.956 167.998 105.563 167.059 104.839C166.656 104.487 166.335 104.05 166.12 103.56C165.904 103.07 165.8 102.538 165.813 102.003C165.796 101.46 165.899 100.92 166.114 100.421C166.33 99.9225 166.652 99.4773 167.059 99.1173V99.1173ZM173.977 110.268V139.071H166.644V110.268H173.977Z" fill="#002F71"/>
<path d="M198.956 112.918C201.469 114.988 203.127 117.914 203.611 121.132H195.863C195.613 119.71 194.855 118.427 193.729 117.522C192.523 116.604 191.033 116.135 189.518 116.197C188.6 116.179 187.69 116.363 186.85 116.736C186.011 117.108 185.264 117.661 184.661 118.353C183.359 119.791 182.709 121.896 182.713 124.67C182.717 127.443 183.366 129.549 184.661 130.986C185.264 131.679 186.011 132.231 186.85 132.603C187.69 132.976 188.6 133.16 189.518 133.142C191.033 133.204 192.523 132.736 193.729 131.817C194.855 130.913 195.613 129.629 195.863 128.207H203.611C203.132 131.434 201.474 134.369 198.956 136.444C196.482 138.454 193.389 139.459 189.675 139.459C187.068 139.506 184.492 138.888 182.191 137.662C180.028 136.489 178.256 134.709 177.093 132.541C175.897 130.094 175.275 127.405 175.275 124.681C175.275 121.957 175.897 119.268 177.093 116.82C178.247 114.646 180.021 112.863 182.191 111.7C184.498 110.491 187.072 109.882 189.675 109.931C193.385 109.912 196.478 110.908 198.956 112.918Z" fill="#002F71"/>
<path d="M221.78 139.071L212.235 126.489V139.071H204.936V100.6H212.235V122.227L221.696 110.268H230.382L218.265 124.619L230.691 139.071H221.78Z" fill="#002F71"/>
<path d="M248.686 112.559C250.809 114.361 252.206 116.873 252.616 119.628H245.772C245.551 118.336 244.89 117.159 243.902 116.298C242.832 115.431 241.482 114.988 240.106 115.052C239.061 114.99 238.028 115.303 237.192 115.933C236.85 116.227 236.578 116.596 236.398 117.01C236.218 117.424 236.135 117.874 236.154 118.325C236.141 118.688 236.209 119.048 236.352 119.382C236.496 119.715 236.712 120.012 236.985 120.251C237.598 120.759 238.306 121.141 239.068 121.374C239.899 121.651 241.095 121.98 242.655 122.362C244.468 122.737 246.249 123.249 247.984 123.895C249.355 124.434 250.569 125.309 251.515 126.438C252.504 127.599 252.998 129.169 252.998 131.149C253.026 132.303 252.78 133.446 252.278 134.485C251.776 135.524 251.033 136.429 250.112 137.123C248.192 138.65 245.601 139.414 242.341 139.414C238.598 139.414 235.603 138.574 233.358 136.893C231.112 135.212 229.74 132.817 229.242 129.706H236.26C236.319 130.367 236.515 131.009 236.837 131.589C237.159 132.169 237.6 132.676 238.13 133.075C239.358 133.941 240.84 134.372 242.341 134.299C243.375 134.371 244.397 134.045 245.199 133.389C245.525 133.091 245.783 132.724 245.953 132.316C246.124 131.908 246.204 131.468 246.187 131.026C246.2 130.646 246.13 130.268 245.983 129.918C245.836 129.568 245.614 129.255 245.334 128.999C244.716 128.452 243.989 128.044 243.2 127.803C242.352 127.522 241.145 127.196 239.584 126.815C237.813 126.434 236.069 125.939 234.363 125.332C233.031 124.833 231.85 123.999 230.932 122.912C229.977 121.789 229.5 120.264 229.5 118.336C229.471 117.17 229.714 116.013 230.21 114.958C230.706 113.902 231.441 112.977 232.358 112.256C234.267 110.695 236.902 109.914 240.264 109.914C243.763 109.907 246.571 110.788 248.686 112.559Z" fill="#002F71"/>
</svg>
